<?xml version="1.0" encoding="utf-8"?>
<!-- Generator: Adobe Illustrator 18.1.0, SVG Export Plug-In . SVG Version: 6.00 Build 0)  -->
<svg version="1.1" id="Layer_1" xmlns="http://www.w3.org/2000/svg" xmlns:xlink="http://www.w3.org/1999/xlink" x="0px" y="0px"
	 viewBox="0 0 312 143.7" enable-background="new 0 0 312 143.7" xml:space="preserve">
<path d="M302.2,42.2l9.8-9.9h-98.1c0,0,0,0,0,0C201.7,12.9,180.4,0,156.1,0c-24.3,0-45.6,12.9-57.8,32.3c0,0,0,0,0,0H0l9.8,9.9h83.3
	c-1.6,3.7-2.8,7.6-3.7,11.6c0,0,0,0,0,0H21.2l9.8,9.9h56.9c-0.2,1.9-0.3,3.8-0.3,5.8c0,2,0.1,3.9,0.3,5.8H42.4l9.8,9.9h37.2
	c0.9,4.1,2.2,8.1,3.9,11.9c0-0.1-0.1-0.2-0.1-0.3H63.6l9.8,9.9h24.9c0,0,0,0,0,0c12.2,19.4,33.5,32.3,57.8,32.3
	c24.3,0,45.6-12.9,57.8-32.3c0,0,0,0,0,0h24.7l9.8-9.9h-29.3c0,0.1-0.1,0.2-0.1,0.3c1.6-3.8,2.9-7.8,3.9-11.9h37l9.8-9.9h-45.2
	c0.2-1.9,0.3-3.8,0.3-5.8c0-2-0.1-3.9-0.3-5.8H281l9.8-9.9h-68c0,0,0,0,0,0c-0.9-4-2.2-7.9-3.7-11.6H302.2z M215.4,34.8
	c0-0.1-0.1-0.1-0.1-0.2C215.3,34.7,215.4,34.7,215.4,34.8z M216.8,37.4c0-0.1-0.1-0.2-0.1-0.3C216.7,37.2,216.8,37.3,216.8,37.4z
	 M95.6,37.1c-0.1,0.1-0.1,0.2-0.1,0.3C95.5,37.3,95.5,37.2,95.6,37.1z M96.9,34.6c0,0.1-0.1,0.1-0.1,0.2
	C96.8,34.7,96.9,34.7,96.9,34.6z M96.8,104.2c0,0.1,0.1,0.1,0.1,0.2C96.9,104.4,96.8,104.3,96.8,104.2z M95.4,101.6
	c0.1,0.1,0.1,0.2,0.2,0.3C95.5,101.8,95.4,101.7,95.4,101.6z M156.1,129.1c-32.4,0-58.7-26.7-58.7-59.6c0-32.9,26.3-59.6,58.7-59.6
	c32.4,0,58.7,26.7,58.7,59.6C214.8,102.4,188.5,129.1,156.1,129.1z M216.7,102c0.1-0.1,0.1-0.2,0.2-0.3
	C216.8,101.7,216.7,101.8,216.7,102z M215.3,104.4c0-0.1,0.1-0.1,0.1-0.2C215.4,104.3,215.3,104.4,215.3,104.4z"/>
<path d="M114.9,85.2h-6.1V53.5h9.1l7.9,25.3l7.9-25.3h9.1v31.6h-6.3V61.7l-7.3,23.4h-6.8l-7.5-23.6V85.2z"/>
<path d="M156.3,85.2h-6.5V53.5h6.5V85.2z"/>
<path d="M169.6,85.2h-6.2V53.5h7.6l12.4,22.9V53.5h6.2v31.6H182l-12.4-22.8V85.2z"/>
<path d="M203.1,85.2h-6.5V53.5h6.5V85.2z"/>
</svg>
